# xmcd CD database file
#
# Track frame offsets:
#	150
#	17237
#	38175
#	50387
#	63262
#	84062
#	99562
#	113087
#	126312
#	145895
#
# Disc length: 2189 seconds
#
# Revision: 0
# Processed by: cddbd v1.4PL0 Copyright (c) Steve Scherf et al.
# Submitted via: CD2WAV32(EN) R3.19
#
DISCID=7e088b0a
DTITLE=Three Degrees - Greatest Hits
DYEAR=1900
DGENRE=
TTITLE0=T.S.O.P.(The Sound of Philadelphia)
TTITLE1=Together
TTITLE2=Year of Decision
TTITLE3=I Didn't Know
TTITLE4=Dirty Ol' Man
TTITLE5=Take Good Care of Yourself
TTITLE6=When Will I See You Again
TTITLE7=Gee Baby (I'm Sorry)
TTITLE8=A Woman Needs A Good Man
TTITLE9=Distant Lover
EXTD=
EXTT0=
EXTT1=
EXTT2=
EXTT3=
EXTT4=
EXTT5=
EXTT6=
EXTT7=
EXTT8=
EXTT9=
PLAYORDER=
